<svg xmlns="http://www.w3.org/2000/svg" xmlns:xlink="http://www.w3.org/1999/xlink" viewBox="0 0 1000 1000"><defs><style>.cls-1{fill:url(#Degradado_sin_nombre_5);}.cls-2{fill:url(#Degradado_sin_nombre_18);}</style><linearGradient id="Degradado_sin_nombre_5" x1="46.81" y1="953.19" x2="953.19" y2="46.81" gradientUnits="userSpaceOnUse"><stop offset="0" stop-color="#441b5c"/><stop offset="1" stop-color="#803a8e"/></linearGradient><linearGradient id="Degradado_sin_nombre_18" x1="743.03" y1="130.03" x2="293.16" y2="909.24" gradientUnits="userSpaceOnUse"><stop offset="0" stop-color="#fff"/><stop offset="0.21" stop-color="#fcfafc"/><stop offset="0.45" stop-color="#f3edf2"/><stop offset="0.7" stop-color="#e5d6e2"/><stop offset="0.96" stop-color="#d1b7cc"/><stop offset="1" stop-color="#ceb2c8"/></linearGradient></defs><g id="Capa_3" data-name="Capa 3"><rect class="cls-1" width="1000" height="1000" rx="159.81"/><path class="cls-2" d="M718.33,242.89c-29-36-26.83-54.27-26.83-54.27,3.36-24.7,41.17-32.93,41.17-32.93s20-5.08,30-9.61v-4.72s-9.56,1.83-27.55-4.88c-6.7-4.27-16.16-15.25-16.16-15.25-13.12-15-24.74-14.29-32.81-10.18a28,28,0,0,0-13.85,17.15c-19.09,64.58-4.36,93.88.64,101.39,1.1,1.64,2.15,3.31,3.13,5,12.6,21.93,56.92,75.67,56.92,75.67,65.25,83.54-40.34,109.18-40.34,109.18h0a110.8,110.8,0,0,0-32.81-54.6h0l-.44-.41-.15-.13q-5-4.6-10-8.76h0a269.79,269.79,0,0,0-50.11-33.79,212,212,0,0,0-21.24-9.92c-4-1.64-8.12-3.11-12.32-4.37A107.93,107.93,0,0,0,545,303l-1.17-.18c-3.36-.47-5.19-.55-5.19-.55h0c-4-.35-8-.54-12.1-.54C409.77,292.59,267.07,428,267.07,428q4.53,3.55,9,7L215,479.6s64.37,62.8,159,63.1c-1.48,0-2.88,0-4.13,0L338.62,660.51,234.55,827.2s-22,28.86,2.84,40.65c0,0,1.22,25.21,52,23.58l-26.42-35s-9.76-14.23.81-28.87L364.24,668.24,466.43,559.08c2.74,1.35,5.55,2.6,8.39,3.77l-.12,0L446.36,664.17S435.69,697.1,466.43,704L622,732.88S611.82,770.69,648.82,767c0,0,0,21.14,40.65,20.73l-39-66.67s-10.16-24-35.77-23.18L485.36,681.33a16.52,16.52,0,0,1-10.28-5.24c-3.15-3.56-5-9,1.77-16L548,574h0c67.34-4,111.81-45.29,111.81-45.29a111.14,111.14,0,0,0,19.28-23.06l0,.05C789.53,460.22,784.8,378,784.8,378,788.77,327.66,718.33,242.89,718.33,242.89Z"/></g></svg>