<svg id="Capa_1" data-name="Capa 1" xmlns="http://www.w3.org/2000/svg" xmlns:xlink="http://www.w3.org/1999/xlink" viewBox="0 0 1000 1000"><defs><style>.cls-1{fill:url(#Degradado_sin_nombre_5);}.cls-2{fill:#fff;}</style><linearGradient id="Degradado_sin_nombre_5" x1="146.5" y1="853.42" x2="853.5" y2="146.42" gradientUnits="userSpaceOnUse"><stop offset="0" stop-color="#441b5c"/><stop offset="1" stop-color="#803a8e"/></linearGradient></defs><rect class="cls-1" x="0.08" width="999.85" height="999.85" rx="499.92"/><path class="cls-2" d="M715.84,374.66c-17.38-30.3-19.8-57.77-36.36-99.39s-7.68-97.77-7.68-105,14.54-23,10.5-31.51,4-12.12-2.8-19.39-25.48-8.49-36.79-4-9.29,8.88-9.29,8.88C660.08,129.83,669,142,669,142c-11.31-9.7-27.47-14.54-35.55-14.54s-8.49,10.9,0,14.54c2.65,1.14,5.26,4.92,7.6,9.58A64.08,64.08,0,0,1,647.23,188c-2.53,20.9-.24,58.25.73,73.56,1.21,19,16.57,64.23,19.39,84.84S700.08,410.21,654,407s-51.71-42.42-115.95-51.31c-46.39-6.42-72.76,6.55-109.86,20-19.15,7-28.87,28.56-21,47.36a27.79,27.79,0,0,0,2,3.94c.13-.33.27-.65.41-1,7.57-16.49,31.51-14.32,37,3,3.75,11.74,13.12,20.74,22.18,27.06a11.55,11.55,0,0,0,17.82-7.16,26.24,26.24,0,0,1,3.35-8.32c84.7,30.86,135.67-20.39,135.67-20.39-29.58,55.48-119.12,34.6-119.12,34.6-.07.29-.13.57-.19.86-2.53,12.93-14.92,21.43-27.73,18.32-38.94-9.44-47.85-28.94-48.8-42.92a4.78,4.78,0,0,0-9.08-1.73c-8.21,16.64,5.05,26.18,5.05,26.18s-43.28-5.44-38.46-50.43a42.72,42.72,0,0,1,.93-5.45,7.72,7.72,0,0,0-9.22-9.24l-.16,0c-69.08,15.36-60.6,55.35-60.6,55.35-30.7,22.22-31.91,63.43-31.91,63.43-30.31,59.8-18.18,74.34-18.18,74.34,11.27-7.83,16.95-20,18.94-25.11-7,21.09.85,42.48.85,42.48,14.55-11.71,19.39-36.36,19.39-36.36-6.46,41.21,12.53,52.52,12.53,52.52,8.69-13.18,11.16-41.93,11.85-55.89.68,18.38,10.37,29.63,10.37,29.63,5.63-12.06,3.79-26.25,1.91-34.44,2.5,5.12,6.17,5.35,6.17,5.35a18.24,18.24,0,0,0,2.83-6.08c.1-.38.21-.77.32-1.14,4.06-13.29,1.48-27.71-7.62-38.21a115.25,115.25,0,0,0-20-18.06s29.77,20.91,55.56,49.18c16.34,17.92,44.25,19.86,62.16,3.49.4-.37.81-.75,1.2-1.14,14.9-14.57,33.25-25.61,33.25-25.61A111.32,111.32,0,0,0,442.73,571c-6.91,17.85-.48,39.92,6,55A69.92,69.92,0,0,1,454,658.91a122,122,0,0,0,.06,17.54s-4.85,55.35-9.7,82.42-14.95,42-18.58,76c-2.94,27.43,24.19,31.06,34.72,31.44H446.77a6.86,6.86,0,0,0-6.74,5.37c-1.42,6.87,8,3.14,46.73,4,36.36.81,31.52-4.45,31.52-4.45-.81-12.92-17.78-14.54-17.78-14.54h-19c-19,0-20.6-16.16-20.6-16.16-8.08-21.82,12.92-101.81,14.54-129.28.93-15.8,5.47-26.79,9.15-33.27A22.15,22.15,0,0,0,487,662.3c-2.8-13.08.94-20.59.94-20.59,12.12-12.53,21.81-73.13,21.81-73.13s-5.25,54.95-15.35,71.51S497.27,691,497.27,691s26.66,97.77,27.87,136.15S532,862.7,541.3,870s0,2,2.43,12.12c1.56,6.5,15.82,5.64,25.8,4.2a5.09,5.09,0,0,0,2.88-8.64c6.87,6.87,25.05,7.67,41.62,8.08s23.83-4,8.48-13.33-40.8-1.62-59.79-26.26-23.44-89.29-29.09-112.32-4.45-42.82-4.85-71.51,10.91-80,10.91-80c-2.43,18.18,2.83,42,2.83,42,13.33-3.24,32.32-60.61,34.34-48.89s44,17.37,82.41,7.27,25.86-63.83,56.57-99S733.21,405,715.84,374.66Z"/></svg>