<svg xmlns="http://www.w3.org/2000/svg" xmlns:xlink="http://www.w3.org/1999/xlink" viewBox="0 0 1000 1000"><defs><style>.cls-1{fill:url(#Degradado_sin_nombre_4);}.cls-2{fill:url(#Degradado_sin_nombre_4-2);}.cls-3{fill:url(#Degradado_sin_nombre_8);}.cls-4{fill:url(#Degradado_sin_nombre_28);}.cls-5{fill:url(#Degradado_sin_nombre_5);}.cls-6{fill:url(#Degradado_sin_nombre_5-2);}.cls-7{fill:url(#Degradado_sin_nombre_5-3);}.cls-8{fill:url(#Degradado_sin_nombre_5-4);}.cls-9{fill:url(#Degradado_sin_nombre_5-5);}.cls-10{fill:url(#Degradado_sin_nombre_5-6);}.cls-11{fill:url(#Degradado_sin_nombre_5-7);}.cls-12{fill:url(#Degradado_sin_nombre_4-3);}.cls-13{fill:url(#Degradado_sin_nombre_8-2);}.cls-14{fill:url(#Degradado_sin_nombre_4-4);}.cls-15{fill:url(#Degradado_sin_nombre_8-3);}</style><linearGradient id="Degradado_sin_nombre_4" x1="232.44" y1="387.71" x2="407.24" y2="212.91" gradientUnits="userSpaceOnUse"><stop offset="0" stop-color="#d7cad8"/><stop offset="1" stop-color="#b28daa"/></linearGradient><linearGradient id="Degradado_sin_nombre_4-2" x1="301.13" y1="148.39" x2="301.13" y2="100" xlink:href="#Degradado_sin_nombre_4"/><linearGradient id="Degradado_sin_nombre_8" x1="231.95" y1="134.4" x2="253.12" y2="113.23" gradientUnits="userSpaceOnUse"><stop offset="0" stop-color="#cab0cc"/><stop offset="1" stop-color="#9b7594"/></linearGradient><linearGradient id="Degradado_sin_nombre_28" x1="350.04" y1="342.74" x2="350.04" y2="475.95" gradientUnits="userSpaceOnUse"><stop offset="0" stop-color="#b28daa"/><stop offset="0.31" stop-color="#bb9cb5"/><stop offset="0.89" stop-color="#d2c2d2"/><stop offset="1" stop-color="#d7cad8"/></linearGradient><linearGradient id="Degradado_sin_nombre_5" x1="486.39" y1="368.88" x2="332.14" y2="368.88" gradientUnits="userSpaceOnUse"><stop offset="0" stop-color="#441b5c"/><stop offset="1" stop-color="#803a8e"/></linearGradient><linearGradient id="Degradado_sin_nombre_5-2" x1="332.14" y1="421.36" x2="486.39" y2="421.36" xlink:href="#Degradado_sin_nombre_5"/><linearGradient id="Degradado_sin_nombre_5-3" x1="420.6" y1="540.83" x2="593.01" y2="368.43" xlink:href="#Degradado_sin_nombre_5"/><linearGradient id="Degradado_sin_nombre_5-4" x1="500.77" y1="247.43" x2="604.1" y2="350.75" xlink:href="#Degradado_sin_nombre_5"/><linearGradient id="Degradado_sin_nombre_5-5" x1="570.84" y1="372.97" x2="782.8" y2="372.97" xlink:href="#Degradado_sin_nombre_5"/><linearGradient id="Degradado_sin_nombre_5-6" x1="690.55" y1="551.97" x2="690.55" y2="402.88" xlink:href="#Degradado_sin_nombre_5"/><linearGradient id="Degradado_sin_nombre_5-7" x1="589.22" y1="620.23" x2="589.22" y2="551.97" xlink:href="#Degradado_sin_nombre_5"/><linearGradient id="Degradado_sin_nombre_4-3" x1="510.21" y1="833.08" x2="679.58" y2="663.71" xlink:href="#Degradado_sin_nombre_4"/><linearGradient id="Degradado_sin_nombre_8-2" x1="523.82" y1="917.77" x2="582.78" y2="858.81" xlink:href="#Degradado_sin_nombre_8"/><linearGradient id="Degradado_sin_nombre_4-4" x1="461.57" y1="793.59" x2="610.56" y2="644.59" xlink:href="#Degradado_sin_nombre_4"/><linearGradient id="Degradado_sin_nombre_8-3" x1="472.58" y1="871.95" x2="528.01" y2="816.52" xlink:href="#Degradado_sin_nombre_8"/></defs><g id="Capa_2" data-name="Capa 2"><polygon class="cls-1" points="248.96 343.48 312.21 467.49 342.72 148.39 312.21 148.39 248.96 343.48"/><polygon class="cls-2" points="342.72 148.39 312.21 148.39 259.55 136.29 259.55 119.66 295.84 100 330.62 124.2 342.72 148.39"/><polygon class="cls-3" points="259.55 119.66 217.2 119.66 259.55 136.29 259.55 119.66"/><polygon class="cls-4" points="322.35 361.41 387.87 342.74 332.14 475.95 312.21 467.49 322.35 361.41"/><polygon class="cls-5" points="332.14 475.95 387.87 342.74 486.39 261.81 332.14 475.95"/><polygon class="cls-6" points="332.14 475.95 486.39 261.81 460.68 580.91 332.14 475.95"/><polygon class="cls-7" points="486.39 261.81 628.54 467.49 584.69 589.98 460.68 580.91 486.39 261.81"/><polygon class="cls-8" points="486.39 261.81 598.3 278.45 570.84 384 486.39 261.81"/><polygon class="cls-9" points="598.3 278.45 782.8 391.87 628.54 467.49 570.84 384 598.3 278.45"/><polygon class="cls-10" points="760.35 402.88 782.8 494.71 598.3 551.97 628.54 467.49 760.35 402.88"/><polygon class="cls-11" points="598.3 551.97 584.69 589.98 542.34 586.88 586.2 620.23 636.11 620.23 598.3 551.97"/><polygon class="cls-12" points="636.11 620.23 616.45 863.71 577.13 900 586.2 620.23 636.11 620.23"/><polygon class="cls-13" points="577.13 900 506.05 900 578.6 854.63 577.13 900"/><polygon class="cls-14" points="586.2 620.23 560.36 820.72 523.1 855.12 542.34 586.88 586.2 620.23"/><polygon class="cls-15" points="523.1 855.12 455.74 855.12 526.01 814.52 523.1 855.12"/></g></svg>