<svg xmlns="http://www.w3.org/2000/svg" xmlns:xlink="http://www.w3.org/1999/xlink" viewBox="0 0 100 100"><defs><style>.cls-1{fill:url(#Degradado_sin_nombre_4);}.cls-2{fill:url(#Degradado_sin_nombre_4-2);}.cls-3{fill:url(#Degradado_sin_nombre_8);}.cls-4{fill:url(#Degradado_sin_nombre_28);}.cls-5{fill:url(#Degradado_sin_nombre_5);}.cls-6{fill:url(#Degradado_sin_nombre_5-2);}.cls-7{fill:url(#Degradado_sin_nombre_5-3);}.cls-8{fill:url(#Degradado_sin_nombre_5-4);}.cls-9{fill:url(#Degradado_sin_nombre_5-5);}.cls-10{fill:url(#Degradado_sin_nombre_5-6);}.cls-11{fill:url(#Degradado_sin_nombre_5-7);}.cls-12{fill:url(#Degradado_sin_nombre_4-3);}.cls-13{fill:url(#Degradado_sin_nombre_8-2);}.cls-14{fill:url(#Degradado_sin_nombre_4-4);}.cls-15{fill:url(#Degradado_sin_nombre_8-3);}</style><linearGradient id="Degradado_sin_nombre_4" x1="24.09" y1="39.13" x2="41.02" y2="22.2" gradientUnits="userSpaceOnUse"><stop offset="0" stop-color="#d7cad8"/><stop offset="1" stop-color="#b28daa"/></linearGradient><linearGradient id="Degradado_sin_nombre_4-2" x1="30.74" y1="15.95" x2="30.74" y2="11.26" xlink:href="#Degradado_sin_nombre_4"/><linearGradient id="Degradado_sin_nombre_8" x1="24.04" y1="14.6" x2="26.09" y2="12.54" gradientUnits="userSpaceOnUse"><stop offset="0" stop-color="#cab0cc"/><stop offset="1" stop-color="#9b7594"/></linearGradient><linearGradient id="Degradado_sin_nombre_28" x1="35.48" y1="34.77" x2="35.48" y2="47.67" gradientUnits="userSpaceOnUse"><stop offset="0" stop-color="#b28daa"/><stop offset="0.31" stop-color="#bb9cb5"/><stop offset="0.89" stop-color="#d2c2d2"/><stop offset="1" stop-color="#d7cad8"/></linearGradient><linearGradient id="Degradado_sin_nombre_5" x1="48.68" y1="37.3" x2="33.74" y2="37.3" gradientUnits="userSpaceOnUse"><stop offset="0" stop-color="#441b5c"/><stop offset="1" stop-color="#803a8e"/></linearGradient><linearGradient id="Degradado_sin_nombre_5-2" x1="33.74" y1="42.38" x2="48.68" y2="42.38" xlink:href="#Degradado_sin_nombre_5"/><linearGradient id="Degradado_sin_nombre_5-3" x1="42.31" y1="53.95" x2="59.01" y2="37.26" xlink:href="#Degradado_sin_nombre_5"/><linearGradient id="Degradado_sin_nombre_5-4" x1="50.07" y1="25.54" x2="60.08" y2="35.55" xlink:href="#Degradado_sin_nombre_5"/><linearGradient id="Degradado_sin_nombre_5-5" x1="56.86" y1="37.7" x2="77.39" y2="37.7" xlink:href="#Degradado_sin_nombre_5"/><linearGradient id="Degradado_sin_nombre_5-6" x1="68.45" y1="55.03" x2="68.45" y2="40.59" xlink:href="#Degradado_sin_nombre_5"/><linearGradient id="Degradado_sin_nombre_5-7" x1="58.64" y1="61.64" x2="58.64" y2="55.03" xlink:href="#Degradado_sin_nombre_5"/><linearGradient id="Degradado_sin_nombre_4-3" x1="50.99" y1="82.26" x2="67.39" y2="65.85" xlink:href="#Degradado_sin_nombre_4"/><linearGradient id="Degradado_sin_nombre_8-2" x1="52.31" y1="90.46" x2="58.02" y2="84.75" xlink:href="#Degradado_sin_nombre_8"/><linearGradient id="Degradado_sin_nombre_4-4" x1="46.28" y1="78.43" x2="60.71" y2="64" xlink:href="#Degradado_sin_nombre_4"/><linearGradient id="Degradado_sin_nombre_8-3" x1="47.34" y1="86.02" x2="52.71" y2="80.65" xlink:href="#Degradado_sin_nombre_8"/></defs><g id="Capa_2" data-name="Capa 2"><polygon class="cls-1" points="25.69 34.84 31.81 46.85 34.77 15.95 31.81 15.95 25.69 34.84"/><polygon class="cls-2" points="34.77 15.95 31.81 15.95 26.71 14.78 26.71 13.17 30.23 11.26 33.6 13.61 34.77 15.95"/><polygon class="cls-3" points="26.71 13.17 22.61 13.17 26.71 14.78 26.71 13.17"/><polygon class="cls-4" points="32.8 36.58 39.14 34.77 33.74 47.67 31.81 46.85 32.8 36.58"/><polygon class="cls-5" points="33.74 47.67 39.14 34.77 48.68 26.93 33.74 47.67"/><polygon class="cls-6" points="33.74 47.67 48.68 26.93 46.19 57.84 33.74 47.67"/><polygon class="cls-7" points="48.68 26.93 62.45 46.85 58.2 58.71 46.19 57.84 48.68 26.93"/><polygon class="cls-8" points="48.68 26.93 59.52 28.55 56.86 38.77 48.68 26.93"/><polygon class="cls-9" points="59.52 28.55 77.39 39.53 62.45 46.85 56.86 38.77 59.52 28.55"/><polygon class="cls-10" points="75.21 40.59 77.39 49.49 59.52 55.03 62.45 46.85 75.21 40.59"/><polygon class="cls-11" points="59.52 55.03 58.2 58.71 54.1 58.41 58.35 61.64 63.18 61.64 59.52 55.03"/><polygon class="cls-12" points="63.18 61.64 61.28 85.22 57.47 88.74 58.35 61.64 63.18 61.64"/><polygon class="cls-13" points="57.47 88.74 50.59 88.74 57.61 84.34 57.47 88.74"/><polygon class="cls-14" points="58.35 61.64 55.84 81.06 52.24 84.39 54.1 58.41 58.35 61.64"/><polygon class="cls-15" points="52.24 84.39 45.71 84.39 52.52 80.46 52.24 84.39"/></g></svg>