<svg xmlns="http://www.w3.org/2000/svg" xmlns:xlink="http://www.w3.org/1999/xlink" viewBox="0 0 100 100"><defs><style>.cls-1{fill:url(#Degradado_sin_nombre_5);}.cls-2{fill:url(#Degradado_sin_nombre_18);}</style><linearGradient id="Degradado_sin_nombre_5" x1="5.91" y1="94.09" x2="94.09" y2="5.91" gradientUnits="userSpaceOnUse"><stop offset="0" stop-color="#441b5c"/><stop offset="1" stop-color="#803a8e"/></linearGradient><linearGradient id="Degradado_sin_nombre_18" x1="74.3" y1="13" x2="29.32" y2="90.92" gradientUnits="userSpaceOnUse"><stop offset="0" stop-color="#fff"/><stop offset="0.21" stop-color="#fcfafc"/><stop offset="0.45" stop-color="#f3edf2"/><stop offset="0.7" stop-color="#e5d6e2"/><stop offset="0.96" stop-color="#d1b7cc"/><stop offset="1" stop-color="#ceb2c8"/></linearGradient></defs><g id="Capa_3" data-name="Capa 3"><rect class="cls-1" width="100" height="100" rx="20.17"/><path class="cls-2" d="M71.83,24.29c-2.89-3.6-2.68-5.43-2.68-5.43.34-2.47,4.12-3.29,4.12-3.29a24.42,24.42,0,0,0,3-1v-.47a5.73,5.73,0,0,1-2.75-.49,10.48,10.48,0,0,1-1.62-1.53c-1.31-1.5-2.47-1.43-3.28-1a2.8,2.8,0,0,0-1.38,1.72c-1.91,6.46-.44,9.39.06,10.14a5.19,5.19,0,0,1,.31.5C68.87,25.65,73.3,31,73.3,31c6.52,8.35-4,10.92-4,10.92h0A11,11,0,0,0,66,36.49h0l0,0h0q-.49-.47-1-.87h0a27.11,27.11,0,0,0-5-3.37,21.56,21.56,0,0,0-2.13-1,12.77,12.77,0,0,0-1.23-.43,10.87,10.87,0,0,0-2.06-.45l-.12,0-.52-.05h0a12,12,0,0,0-1.21-.06C41,29.26,26.71,42.8,26.71,42.8l.89.7L21.5,48a24.86,24.86,0,0,0,15.91,6.31H37L33.86,66.05,23.45,82.72s-2.19,2.89.29,4.06c0,0,.12,2.53,5.2,2.36L26.3,85.65a2.58,2.58,0,0,1,.08-2.89l10-15.94L46.64,55.91c.28.13.56.26.84.37h0L44.64,66.42s-1.07,3.29,2,4L62.2,73.29s-1,3.78,2.68,3.41c0,0,0,2.12,4.07,2.08L65,72.11a3.92,3.92,0,0,0-3.57-2.32L48.54,68.13a1.6,1.6,0,0,1-1-.52c-.32-.36-.5-.9.17-1.6L54.8,57.4h0A19.53,19.53,0,0,0,66,52.87a11.28,11.28,0,0,0,1.93-2.31h0C79,46,78.48,37.8,78.48,37.8,78.88,32.77,71.83,24.29,71.83,24.29Z"/></g></svg>