<svg id="Capa_1" data-name="Capa 1" xmlns="http://www.w3.org/2000/svg" xmlns:xlink="http://www.w3.org/1999/xlink" viewBox="0 0 100 100"><defs><style>.cls-1{fill:url(#Degradado_sin_nombre_5);}.cls-2{fill:#fff;}</style><linearGradient id="Degradado_sin_nombre_5" x1="14.64" y1="85.36" x2="85.36" y2="14.64" gradientUnits="userSpaceOnUse"><stop offset="0" stop-color="#441b5c"/><stop offset="1" stop-color="#803a8e"/></linearGradient></defs><rect class="cls-1" width="100" height="100" rx="50"/><path class="cls-2" d="M71.59,37.47c-1.74-3-2-5.78-3.64-9.94s-.77-9.78-.77-10.5,1.46-2.31,1-3.16.41-1.21-.28-1.94-2.55-.84-3.68-.4-.93.89-.93.89A6,6,0,0,1,66.9,14.2a6.4,6.4,0,0,0-3.56-1.46c-.8,0-.84,1.09,0,1.46a2,2,0,0,1,.76,1,6.4,6.4,0,0,1,.63,3.65,49.34,49.34,0,0,0,.07,7.36c.12,1.9,1.66,6.42,1.94,8.48S70,41,65.4,40.7s-5.17-4.24-11.59-5.13c-4.64-.64-7.28.66-11,2a3.57,3.57,0,0,0-2.1,4.73,3.93,3.93,0,0,0,.2.4,1,1,0,0,1,0-.1,2,2,0,0,1,3.7.3,5.61,5.61,0,0,0,2.22,2.7,1.15,1.15,0,0,0,1.78-.71,2.81,2.81,0,0,1,.34-.84c8.47,3.09,13.57-2,13.57-2-3,5.54-11.91,3.46-11.91,3.46a.19.19,0,0,0,0,.08,2.29,2.29,0,0,1-2.78,1.83C44,46.46,43.08,44.51,43,43.11a.48.48,0,0,0-.91-.17,2,2,0,0,0,.51,2.62,4.43,4.43,0,0,1-3.85-5.05,3,3,0,0,1,.1-.54A.78.78,0,0,0,37.9,39h0c-6.91,1.53-6.06,5.53-6.06,5.53-3.07,2.23-3.2,6.35-3.2,6.35-3,6-1.81,7.43-1.81,7.43a5.67,5.67,0,0,0,1.89-2.51,7.17,7.17,0,0,0,.09,4.25,7.19,7.19,0,0,0,1.94-3.64C30.09,60.58,32,61.72,32,61.72c.87-1.32,1.11-4.2,1.18-5.59a5.15,5.15,0,0,0,1,3,5.56,5.56,0,0,0,.19-3.45c.25.52.62.54.62.54a1.76,1.76,0,0,0,.28-.61l0-.11a4,4,0,0,0-.76-3.82,11.16,11.16,0,0,0-2-1.81,38,38,0,0,1,5.55,4.92,4.42,4.42,0,0,0,6.22.35l.12-.12a21.11,21.11,0,0,1,3.33-2.56,11.13,11.13,0,0,0-3.52,4.69c-.69,1.79-.05,4,.6,5.5a7.13,7.13,0,0,1,.53,3.29,12.65,12.65,0,0,0,0,1.76s-.48,5.53-1,8.24-1.49,4.2-1.86,7.59c-.29,2.75,2.42,3.11,3.48,3.15H44.68a.69.69,0,0,0-.68.54c-.14.68.8.31,4.68.4,3.63.08,3.15-.45,3.15-.45-.08-1.29-1.78-1.45-1.78-1.45h-1.9a1.9,1.9,0,0,1-2.06-1.62c-.81-2.18,1.29-10.18,1.45-12.93a7.68,7.68,0,0,1,.92-3.33,2.18,2.18,0,0,0,.24-1.56,3.32,3.32,0,0,1,.1-2.06C50,62.93,51,56.87,51,56.87s-.53,5.49-1.54,7.15.29,5.09.29,5.09,2.66,9.78,2.78,13.62.69,3.55,1.62,4.28,0,.2.24,1.21c.16.65,1.59.57,2.58.42a.5.5,0,0,0,.29-.86c.69.68,2.51.77,4.16.81s2.39-.41.85-1.34-4.08-.16-6-2.62-2.34-8.93-2.91-11.24a30.74,30.74,0,0,1-.48-7.15,47.43,47.43,0,0,1,1.09-8,14.78,14.78,0,0,0,.28,4.2c1.34-.32,3.23-6.06,3.44-4.89s4.4,1.74,8.24.73,2.59-6.38,5.66-9.9S73.32,40.5,71.59,37.47Z"/></svg>