<svg xmlns="http://www.w3.org/2000/svg" xmlns:xlink="http://www.w3.org/1999/xlink" viewBox="0 0 400 400"><defs><style>.cls-1{fill:url(#Degradado_sin_nombre_4);}.cls-2{fill:url(#Degradado_sin_nombre_4-2);}.cls-3{fill:url(#Degradado_sin_nombre_8);}.cls-4{fill:url(#Degradado_sin_nombre_28);}.cls-5{fill:url(#Degradado_sin_nombre_5);}.cls-6{fill:url(#Degradado_sin_nombre_5-2);}.cls-7{fill:url(#Degradado_sin_nombre_5-3);}.cls-8{fill:url(#Degradado_sin_nombre_5-4);}.cls-9{fill:url(#Degradado_sin_nombre_5-5);}.cls-10{fill:url(#Degradado_sin_nombre_5-6);}.cls-11{fill:url(#Degradado_sin_nombre_5-7);}.cls-12{fill:url(#Degradado_sin_nombre_4-3);}.cls-13{fill:url(#Degradado_sin_nombre_8-2);}.cls-14{fill:url(#Degradado_sin_nombre_4-4);}.cls-15{fill:url(#Degradado_sin_nombre_8-3);}</style><linearGradient id="Degradado_sin_nombre_4" x1="96.27" y1="156.47" x2="164.04" y2="88.7" gradientUnits="userSpaceOnUse"><stop offset="0" stop-color="#d7cad8"/><stop offset="1" stop-color="#b28daa"/></linearGradient><linearGradient id="Degradado_sin_nombre_4-2" x1="122.9" y1="63.69" x2="122.9" y2="44.93" xlink:href="#Degradado_sin_nombre_4"/><linearGradient id="Degradado_sin_nombre_8" x1="96.08" y1="58.27" x2="104.29" y2="50.06" gradientUnits="userSpaceOnUse"><stop offset="0" stop-color="#cab0cc"/><stop offset="1" stop-color="#9b7594"/></linearGradient><linearGradient id="Degradado_sin_nombre_28" x1="141.86" y1="139.03" x2="141.86" y2="190.68" gradientUnits="userSpaceOnUse"><stop offset="0" stop-color="#b28daa"/><stop offset="0.31" stop-color="#bb9cb5"/><stop offset="0.89" stop-color="#d2c2d2"/><stop offset="1" stop-color="#d7cad8"/></linearGradient><linearGradient id="Degradado_sin_nombre_5" x1="194.72" y1="149.17" x2="134.92" y2="149.17" gradientUnits="userSpaceOnUse"><stop offset="0" stop-color="#441b5c"/><stop offset="1" stop-color="#803a8e"/></linearGradient><linearGradient id="Degradado_sin_nombre_5-2" x1="134.92" y1="169.51" x2="194.72" y2="169.51" xlink:href="#Degradado_sin_nombre_5"/><linearGradient id="Degradado_sin_nombre_5-3" x1="169.22" y1="215.83" x2="236.06" y2="148.99" xlink:href="#Degradado_sin_nombre_5"/><linearGradient id="Degradado_sin_nombre_5-4" x1="200.3" y1="102.08" x2="240.36" y2="142.14" xlink:href="#Degradado_sin_nombre_5"/><linearGradient id="Degradado_sin_nombre_5-5" x1="227.46" y1="150.75" x2="309.63" y2="150.75" xlink:href="#Degradado_sin_nombre_5"/><linearGradient id="Degradado_sin_nombre_5-6" x1="273.87" y1="220.15" x2="273.87" y2="162.35" xlink:href="#Degradado_sin_nombre_5"/><linearGradient id="Degradado_sin_nombre_5-7" x1="234.59" y1="246.61" x2="234.59" y2="220.15" xlink:href="#Degradado_sin_nombre_5"/><linearGradient id="Degradado_sin_nombre_4-3" x1="203.96" y1="329.13" x2="269.62" y2="263.46" xlink:href="#Degradado_sin_nombre_4"/><linearGradient id="Degradado_sin_nombre_8-2" x1="209.23" y1="361.96" x2="232.09" y2="339.1" xlink:href="#Degradado_sin_nombre_8"/><linearGradient id="Degradado_sin_nombre_4-4" x1="185.1" y1="313.82" x2="242.86" y2="256.05" xlink:href="#Degradado_sin_nombre_4"/><linearGradient id="Degradado_sin_nombre_8-3" x1="189.37" y1="344.2" x2="210.86" y2="322.71" xlink:href="#Degradado_sin_nombre_8"/></defs><g id="Capa_2" data-name="Capa 2"><polygon class="cls-1" points="102.68 139.32 127.2 187.4 139.03 63.69 127.2 63.69 102.68 139.32"/><polygon class="cls-2" points="139.03 63.69 127.2 63.69 106.78 59 106.78 52.55 120.85 44.93 134.34 54.31 139.03 63.69"/><polygon class="cls-3" points="106.78 52.55 90.37 52.55 106.78 59 106.78 52.55"/><polygon class="cls-4" points="131.13 146.27 156.53 139.03 134.92 190.68 127.2 187.4 131.13 146.27"/><polygon class="cls-5" points="134.92 190.68 156.53 139.03 194.72 107.66 134.92 190.68"/><polygon class="cls-6" points="134.92 190.68 194.72 107.66 184.76 231.37 134.92 190.68"/><polygon class="cls-7" points="194.72 107.66 249.83 187.4 232.83 234.88 184.76 231.37 194.72 107.66"/><polygon class="cls-8" points="194.72 107.66 238.11 114.11 227.47 155.03 194.72 107.66"/><polygon class="cls-9" points="238.11 114.11 309.63 158.08 249.83 187.4 227.47 155.03 238.11 114.11"/><polygon class="cls-10" points="300.93 162.35 309.63 197.95 238.11 220.15 249.83 187.4 300.93 162.35"/><polygon class="cls-11" points="238.11 220.15 232.83 234.88 216.42 233.68 233.42 246.61 252.76 246.61 238.11 220.15"/><polygon class="cls-12" points="252.76 246.61 245.14 341 229.9 355.07 233.42 246.61 252.76 246.61"/><polygon class="cls-13" points="229.9 355.07 202.34 355.07 230.47 337.48 229.9 355.07"/><polygon class="cls-14" points="233.42 246.61 223.4 324.33 208.95 337.67 216.42 233.68 233.42 246.61"/><polygon class="cls-15" points="208.95 337.67 182.84 337.67 210.08 321.93 208.95 337.67"/></g></svg>