<svg id="Capa_1" data-name="Capa 1" xmlns="http://www.w3.org/2000/svg" xmlns:xlink="http://www.w3.org/1999/xlink" viewBox="0 0 400 400"><defs><style>.cls-1{fill:url(#Degradado_sin_nombre_5);}.cls-2{fill:#fff;}</style><linearGradient id="Degradado_sin_nombre_5" x1="58.58" y1="341.42" x2="341.42" y2="58.58" gradientUnits="userSpaceOnUse"><stop offset="0" stop-color="#441b5c"/><stop offset="1" stop-color="#803a8e"/></linearGradient></defs><rect class="cls-1" width="400" height="400" rx="200"/><path class="cls-2" d="M286.35,149.89c-7-12.13-7.92-23.12-14.55-39.76s-3.07-39.12-3.07-42,5.82-9.21,4.2-12.6,1.62-4.85-1.12-7.76-10.19-3.4-14.72-1.62-3.71,3.56-3.71,3.56c10.66,2.26,14.22,7.11,14.22,7.11-4.53-3.88-11-5.82-14.22-5.82s-3.4,4.36,0,5.82c1.06.45,2.1,2,3,3.83A25.66,25.66,0,0,1,258.9,75.2c-1,8.36-.1,23.31.29,29.43.49,7.6,6.63,25.7,7.76,33.94s13.09,25.54-5.33,24.25-20.69-17-46.39-20.53c-18.56-2.57-29.11,2.62-43.95,8a14.35,14.35,0,0,0-8.4,18.95,12.38,12.38,0,0,0,.79,1.57l.17-.38c3-6.6,12.61-5.73,14.82,1.19,1.5,4.69,5.25,8.29,8.87,10.82a4.62,4.62,0,0,0,7.13-2.86,10.39,10.39,0,0,1,1.34-3.33c33.88,12.34,54.28-8.16,54.28-8.16-11.84,22.2-47.66,13.84-47.66,13.84s-.05.23-.08.35a9.16,9.16,0,0,1-11.09,7.33c-15.58-3.78-19.14-11.58-19.52-17.18a1.92,1.92,0,0,0-3.64-.68c-3.28,6.65,2,10.47,2,10.47s-17.31-2.18-15.38-20.18a16.8,16.8,0,0,1,.37-2.18,3.08,3.08,0,0,0-3.69-3.69h-.06c-27.64,6.14-24.24,22.14-24.24,22.14-12.29,8.89-12.77,25.38-12.77,25.38-12.12,23.92-7.28,29.74-7.28,29.74a22.63,22.63,0,0,0,7.59-10c-2.82,8.44.33,17,.33,17,5.82-4.69,7.76-14.55,7.76-14.55-2.58,16.49,5,21,5,21,3.48-5.27,4.47-16.77,4.74-22.36a20.62,20.62,0,0,0,4.15,11.86c2.25-4.83,1.52-10.51.77-13.78,1,2,2.46,2.14,2.46,2.14a7.32,7.32,0,0,0,1.14-2.43c0-.16.08-.31.13-.46a16.08,16.08,0,0,0-3.05-15.29,46.6,46.6,0,0,0-8-7.22A154.15,154.15,0,0,1,152.5,219a17.63,17.63,0,0,0,24.87,1.4l.48-.45a83.06,83.06,0,0,1,13.3-10.25,44.42,44.42,0,0,0-14.06,18.75c-2.77,7.14-.19,16,2.38,22a27.89,27.89,0,0,1,2.12,13.14,48.5,48.5,0,0,0,0,7s-1.94,22.14-3.88,33-6,16.81-7.43,30.39c-1.18,11,9.68,12.42,13.89,12.58H178.7a2.73,2.73,0,0,0-2.69,2.15c-.57,2.74,3.18,1.25,18.69,1.59,14.55.33,12.61-1.77,12.61-1.77-.32-5.18-7.11-5.82-7.11-5.82h-7.6c-7.59,0-8.24-6.47-8.24-6.47-3.23-8.73,5.17-40.73,5.82-51.72a30.44,30.44,0,0,1,3.66-13.31,8.91,8.91,0,0,0,1-6.25c-1.13-5.23.37-8.24.37-8.24,4.85-5,8.73-29.25,8.73-29.25s-2.1,22-6.14,28.61,1.13,20.36,1.13,20.36,10.66,39.11,11.15,54.47,2.75,14.22,6.46,17.13,0,.81,1,4.85c.63,2.6,6.33,2.26,10.32,1.68a2,2,0,0,0,1.16-3.46c2.75,2.75,10,3.07,16.65,3.23s9.53-1.61,3.39-5.33-16.32-.65-23.92-10.5-9.37-35.72-11.64-44.94-1.77-17.13-1.94-28.61,4.37-32,4.37-32c-1,7.28,1.13,16.81,1.13,16.81,5.33-1.29,12.93-24.24,13.74-19.56s17.61,6.95,33,2.91,10.34-25.53,22.63-39.59S293.3,162,286.35,149.89Z"/></svg>