<svg xmlns="http://www.w3.org/2000/svg" xmlns:xlink="http://www.w3.org/1999/xlink" viewBox="0 0 400 400"><defs><style>.cls-1{fill:url(#Degradado_sin_nombre_5);}.cls-2{fill:url(#Degradado_sin_nombre_18);}</style><linearGradient id="Degradado_sin_nombre_5" x1="21.83" y1="378.17" x2="378.17" y2="21.83" gradientUnits="userSpaceOnUse"><stop offset="0" stop-color="#441b5c"/><stop offset="1" stop-color="#803a8e"/></linearGradient><linearGradient id="Degradado_sin_nombre_18" x1="297.21" y1="52.01" x2="117.26" y2="363.7" gradientUnits="userSpaceOnUse"><stop offset="0" stop-color="#fff"/><stop offset="0.21" stop-color="#fcfafc"/><stop offset="0.45" stop-color="#f3edf2"/><stop offset="0.7" stop-color="#e5d6e2"/><stop offset="0.96" stop-color="#d1b7cc"/><stop offset="1" stop-color="#ceb2c8"/></linearGradient></defs><g id="Capa_3" data-name="Capa 3"><rect class="cls-1" width="400" height="400" rx="74.53"/><path class="cls-2" d="M287.33,97.16C275.75,82.77,276.6,75.45,276.6,75.45c1.34-9.88,16.47-13.17,16.47-13.17a97.48,97.48,0,0,0,12-3.85V56.54s-3.82.73-11-1.95c-2.68-1.71-6.46-6.1-6.46-6.1-5.25-6-9.9-5.71-13.13-4.07a11.22,11.22,0,0,0-5.54,6.86c-7.63,25.83-1.74,37.55.26,40.56.44.65.86,1.32,1.25,2,5,8.78,22.77,30.27,22.77,30.27,26.1,33.42-16.14,43.67-16.14,43.67h0a44.38,44.38,0,0,0-13.12-21.84h0l-.18-.16-.06-.06q-2-1.83-4-3.5h0a107.88,107.88,0,0,0-20-13.52,85.29,85.29,0,0,0-8.5-4q-2.4-1-4.92-1.75A44.16,44.16,0,0,0,218,121.2l-.46-.07c-1.35-.19-2.08-.22-2.08-.22h0c-1.6-.14-3.21-.21-4.84-.21-46.71-3.66-103.79,50.49-103.79,50.49l3.58,2.8L86,191.84s25.75,25.12,63.61,25.24c-.59,0-1.15,0-1.65,0l-12.52,47.15L93.82,330.88S85,342.42,95,347.14c0,0,.49,10.08,20.81,9.43l-10.57-14a10.32,10.32,0,0,1,.33-11.55l40.16-63.75,40.88-43.66c1.1.54,2.22,1,3.36,1.51h-.05l-11.34,40.54s-4.27,13.17,8,15.94l62.22,11.54s-4.06,15.12,10.74,13.66c0,0,0,8.46,16.26,8.29l-15.61-26.66s-4.07-9.6-14.31-9.27l-51.73-6.64a6.6,6.6,0,0,1-4.11-2.09c-1.26-1.43-2-3.61.71-6.4l28.47-34.45h0a78,78,0,0,0,44.72-18.11,44.66,44.66,0,0,0,7.71-9.23v0c44.18-18.18,42.29-51.08,42.29-51.08C315.51,131.06,287.33,97.16,287.33,97.16Z"/></g></svg>